<svg width="1600" height="420" viewBox="0 0 1600 420" xmlns="http://www.w3.org/2000/svg" xmlns:xlink="http://www.w3.org/1999/xlink">
<title>Ahmad Mustafa, Full-Stack AI Engineer and Security Researcher</title>

  <defs>
    <linearGradient id="bgGrad" x1="0%" y1="0%" x2="100%" y2="100%">
      <stop offset="0%" stop-color="#05060B"/>
      <stop offset="55%" stop-color="#0A0E1A"/>
      <stop offset="100%" stop-color="#0B0915"/>
    </linearGradient>

    <linearGradient id="brandGrad" x1="0%" y1="0%" x2="100%" y2="100%">
      <stop offset="0%" stop-color="#22D3EE"/>
      <stop offset="45%" stop-color="#7C3AED"/>
      <stop offset="100%" stop-color="#C026D3"/>
    </linearGradient>

    <linearGradient id="brandGradSoft" x1="0%" y1="0%" x2="100%" y2="0%">
      <stop offset="0%" stop-color="#22D3EE" stop-opacity="0.9"/>
      <stop offset="50%" stop-color="#7C3AED" stop-opacity="0.9"/>
      <stop offset="100%" stop-color="#C026D3" stop-opacity="0.9"/>
    </linearGradient>

    <linearGradient id="panelGrad" x1="0%" y1="0%" x2="100%" y2="100%">
      <stop offset="0%" stop-color="#141B30"/>
      <stop offset="100%" stop-color="#0D1220"/>
    </linearGradient>

    <linearGradient id="edgeFade" x1="0%" y1="0%" x2="100%" y2="0%">
      <stop offset="0%" stop-color="#7C3AED" stop-opacity="0"/>
      <stop offset="50%" stop-color="#7C3AED" stop-opacity="0.9"/>
      <stop offset="100%" stop-color="#C026D3" stop-opacity="0"/>
    </linearGradient>

    <radialGradient id="glowViolet" cx="50%" cy="50%" r="50%">
      <stop offset="0%" stop-color="#7C3AED" stop-opacity="0.55"/>
      <stop offset="100%" stop-color="#7C3AED" stop-opacity="0"/>
    </radialGradient>

    <radialGradient id="glowCyan" cx="50%" cy="50%" r="50%">
      <stop offset="0%" stop-color="#22D3EE" stop-opacity="0.45"/>
      <stop offset="100%" stop-color="#22D3EE" stop-opacity="0"/>
    </radialGradient>

    <radialGradient id="glowMagenta" cx="50%" cy="50%" r="50%">
      <stop offset="0%" stop-color="#C026D3" stop-opacity="0.4"/>
      <stop offset="100%" stop-color="#C026D3" stop-opacity="0"/>
    </radialGradient>

    <pattern id="dotGrid" width="26" height="26" patternUnits="userSpaceOnUse">
      <circle cx="1.4" cy="1.4" r="1.4" fill="#7C3AED" opacity="0.16"/>
    </pattern>

    <pattern id="circuitTex" width="120" height="120" patternUnits="userSpaceOnUse">
      <path d="M0 60 H40 V20 H90" stroke="#7C3AED" stroke-opacity="0.10" stroke-width="1.4" fill="none"/>
      <path d="M120 30 H80 V90 H30" stroke="#22D3EE" stroke-opacity="0.08" stroke-width="1.4" fill="none"/>
      <circle cx="40" cy="20" r="2.4" fill="#7C3AED" opacity="0.18"/>
      <circle cx="90" cy="20" r="2.4" fill="#7C3AED" opacity="0.12"/>
      <circle cx="80" cy="90" r="2.4" fill="#22D3EE" opacity="0.16"/>
      <circle cx="30" cy="90" r="2.4" fill="#22D3EE" opacity="0.10"/>
    </pattern>

    <filter id="softGlow" x="-60%" y="-60%" width="220%" height="220%">
      <feGaussianBlur stdDeviation="6" result="b"/>
      <feMerge>
        <feMergeNode in="b"/>
        <feMergeNode in="SourceGraphic"/>
      </feMerge>
    </filter>

    <filter id="cardShadow" x="-30%" y="-30%" width="160%" height="160%">
      <feDropShadow dx="0" dy="10" stdDeviation="18" flood-color="#000000" flood-opacity="0.45"/>
    </filter>
    
  </defs>

  <rect width="1600" height="420" fill="url(#bgGrad)"/>
  <rect width="1600" height="420" fill="url(#circuitTex)"/>
  <rect width="1600" height="420" fill="url(#dotGrid)"/><ellipse cx="220" cy="90" rx="420" ry="300" fill="url(#glowViolet)" opacity="0.22"/><ellipse cx="1420" cy="420" rx="460" ry="280" fill="url(#glowMagenta)"/><ellipse cx="1300" cy="70" rx="300" ry="200" fill="url(#glowCyan)" opacity="0.7"/><g opacity="0.55"><line x1="1161.3" y1="100.3" x2="1214.7" y2="256.3" stroke="#7C3AED" stroke-opacity="0.16" stroke-width="1"/><line x1="1161.3" y1="100.3" x2="1182.5" y2="139.4" stroke="#7C3AED" stroke-opacity="0.16" stroke-width="1"/><line x1="1020.6" y1="254.4" x2="1001.0" y2="213.5" stroke="#7C3AED" stroke-opacity="0.16" stroke-width="1"/><line x1="1020.6" y1="254.4" x2="1114.8" y2="260.4" stroke="#7C3AED" stroke-opacity="0.16" stroke-width="1"/><line x1="1020.6" y1="254.4" x2="1006.1" y2="383.4" stroke="#7C3AED" stroke-opacity="0.16" stroke-width="1"/><line x1="1020.6" y1="254.4" x2="1034.6" y2="324.8" stroke="#7C3AED" stroke-opacity="0.16" stroke-width="1"/><line x1="1306.4" y1="403.9" x2="1333.2" y2="273.2" stroke="#7C3AED" stroke-opacity="0.16" stroke-width="1"/><line x1="1306.4" y1="403.9" x2="1293.7" y2="312.8" stroke="#7C3AED" stroke-opacity="0.16" stroke-width="1"/><line x1="1306.4" y1="403.9" x2="1305.7" y2="295.6" stroke="#7C3AED" stroke-opacity="0.16" stroke-width="1"/><line x1="1001.0" y1="213.5" x2="1114.8" y2="260.4" stroke="#7C3AED" stroke-opacity="0.16" stroke-width="1"/><line x1="1001.0" y1="213.5" x2="1034.6" y2="324.8" stroke="#7C3AED" stroke-opacity="0.16" stroke-width="1"/><line x1="1114.8" y1="260.4" x2="1006.1" y2="383.4" stroke="#7C3AED" stroke-opacity="0.16" stroke-width="1"/><line x1="1114.8" y1="260.4" x2="1214.7" y2="256.3" stroke="#7C3AED" stroke-opacity="0.16" stroke-width="1"/><line x1="1114.8" y1="260.4" x2="1034.6" y2="324.8" stroke="#7C3AED" stroke-opacity="0.16" stroke-width="1"/><line x1="1114.8" y1="260.4" x2="1182.5" y2="139.4" stroke="#7C3AED" stroke-opacity="0.16" stroke-width="1"/><line x1="1443.0" y1="89.5" x2="1415.2" y2="226.2" stroke="#7C3AED" stroke-opacity="0.16" stroke-width="1"/><line x1="1333.2" y1="273.2" x2="1303.2" y2="198.7" stroke="#7C3AED" stroke-opacity="0.16" stroke-width="1"/><line x1="1333.2" y1="273.2" x2="1214.7" y2="256.3" stroke="#7C3AED" stroke-opacity="0.16" stroke-width="1"/><line x1="1333.2" y1="273.2" x2="1293.7" y2="312.8" stroke="#7C3AED" stroke-opacity="0.16" stroke-width="1"/><line x1="1333.2" y1="273.2" x2="1305.7" y2="295.6" stroke="#7C3AED" stroke-opacity="0.16" stroke-width="1"/><line x1="1333.2" y1="273.2" x2="1326.6" y2="238.6" stroke="#7C3AED" stroke-opacity="0.16" stroke-width="1"/><line x1="1333.2" y1="273.2" x2="1415.2" y2="226.2" stroke="#7C3AED" stroke-opacity="0.16" stroke-width="1"/><line x1="1303.2" y1="198.7" x2="1214.7" y2="256.3" stroke="#7C3AED" stroke-opacity="0.16" stroke-width="1"/><line x1="1303.2" y1="198.7" x2="1293.7" y2="312.8" stroke="#7C3AED" stroke-opacity="0.16" stroke-width="1"/><line x1="1303.2" y1="198.7" x2="1305.7" y2="295.6" stroke="#7C3AED" stroke-opacity="0.16" stroke-width="1"/><line x1="1303.2" y1="198.7" x2="1326.6" y2="238.6" stroke="#7C3AED" stroke-opacity="0.16" stroke-width="1"/><line x1="1303.2" y1="198.7" x2="1415.2" y2="226.2" stroke="#7C3AED" stroke-opacity="0.16" stroke-width="1"/><line x1="1303.2" y1="198.7" x2="1182.5" y2="139.4" stroke="#7C3AED" stroke-opacity="0.16" stroke-width="1"/><line x1="1006.1" y1="383.4" x2="1034.6" y2="324.8" stroke="#7C3AED" stroke-opacity="0.16" stroke-width="1"/><line x1="1214.7" y1="256.3" x2="1293.7" y2="312.8" stroke="#7C3AED" stroke-opacity="0.16" stroke-width="1"/><line x1="1214.7" y1="256.3" x2="1305.7" y2="295.6" stroke="#7C3AED" stroke-opacity="0.16" stroke-width="1"/><line x1="1214.7" y1="256.3" x2="1326.6" y2="238.6" stroke="#7C3AED" stroke-opacity="0.16" stroke-width="1"/><line x1="1214.7" y1="256.3" x2="1182.5" y2="139.4" stroke="#7C3AED" stroke-opacity="0.16" stroke-width="1"/><line x1="1293.7" y1="312.8" x2="1305.7" y2="295.6" stroke="#7C3AED" stroke-opacity="0.16" stroke-width="1"/><line x1="1293.7" y1="312.8" x2="1326.6" y2="238.6" stroke="#7C3AED" stroke-opacity="0.16" stroke-width="1"/><line x1="1293.7" y1="312.8" x2="1415.2" y2="226.2" stroke="#7C3AED" stroke-opacity="0.16" stroke-width="1"/><line x1="1305.7" y1="295.6" x2="1326.6" y2="238.6" stroke="#7C3AED" stroke-opacity="0.16" stroke-width="1"/><line x1="1305.7" y1="295.6" x2="1415.2" y2="226.2" stroke="#7C3AED" stroke-opacity="0.16" stroke-width="1"/><line x1="1326.6" y1="238.6" x2="1415.2" y2="226.2" stroke="#7C3AED" stroke-opacity="0.16" stroke-width="1"/><circle cx="1161.3" cy="100.3" r="3.1" fill="#7C3AED" opacity="0.85"><animate attributeName="opacity" values="0.35;1;0.35" dur="3.1s" repeatCount="indefinite" begin="0.00s"/></circle><circle cx="1020.6" cy="254.4" r="2.9" fill="#C026D3" opacity="0.85"><animate attributeName="opacity" values="0.35;1;0.35" dur="3.8s" repeatCount="indefinite" begin="0.23s"/></circle><circle cx="1306.4" cy="403.9" r="3.4" fill="#22D3EE" opacity="0.85"><animate attributeName="opacity" values="0.35;1;0.35" dur="4.2s" repeatCount="indefinite" begin="0.46s"/></circle><circle cx="1001.0" cy="213.5" r="2.5" fill="#7C3AED" opacity="0.85"><animate attributeName="opacity" values="0.35;1;0.35" dur="4.8s" repeatCount="indefinite" begin="0.69s"/></circle><circle cx="1114.8" cy="260.4" r="2.2" fill="#7C3AED" opacity="0.85"><animate attributeName="opacity" values="0.35;1;0.35" dur="3.5s" repeatCount="indefinite" begin="0.92s"/></circle><circle cx="1443.0" cy="89.5" r="3.2" fill="#22D3EE" opacity="0.85"><animate attributeName="opacity" values="0.35;1;0.35" dur="2.9s" repeatCount="indefinite" begin="1.15s"/></circle><circle cx="1333.2" cy="273.2" r="2.8" fill="#7C3AED" opacity="0.85"><animate attributeName="opacity" values="0.35;1;0.35" dur="2.7s" repeatCount="indefinite" begin="1.38s"/></circle><circle cx="1303.2" cy="198.7" r="3.1" fill="#22D3EE" opacity="0.85"><animate attributeName="opacity" values="0.35;1;0.35" dur="4.3s" repeatCount="indefinite" begin="1.61s"/></circle><circle cx="1006.1" cy="383.4" r="2.9" fill="#C026D3" opacity="0.85"><animate attributeName="opacity" values="0.35;1;0.35" dur="4.5s" repeatCount="indefinite" begin="1.84s"/></circle><circle cx="1214.7" cy="256.3" r="2.5" fill="#C026D3" opacity="0.85"><animate attributeName="opacity" values="0.35;1;0.35" dur="4.1s" repeatCount="indefinite" begin="2.07s"/></circle><circle cx="1293.7" cy="312.8" r="3.0" fill="#7C3AED" opacity="0.85"><animate attributeName="opacity" values="0.35;1;0.35" dur="3.9s" repeatCount="indefinite" begin="2.30s"/></circle><circle cx="1305.7" cy="295.6" r="2.7" fill="#C026D3" opacity="0.85"><animate attributeName="opacity" values="0.35;1;0.35" dur="4.4s" repeatCount="indefinite" begin="2.53s"/></circle><circle cx="1034.6" cy="324.8" r="3.5" fill="#7C3AED" opacity="0.85"><animate attributeName="opacity" values="0.35;1;0.35" dur="3.6s" repeatCount="indefinite" begin="2.76s"/></circle><circle cx="1326.6" cy="238.6" r="3.1" fill="#A78BFA" opacity="0.85"><animate attributeName="opacity" values="0.35;1;0.35" dur="2.7s" repeatCount="indefinite" begin="2.99s"/></circle><circle cx="1415.2" cy="226.2" r="3.1" fill="#A78BFA" opacity="0.85"><animate attributeName="opacity" values="0.35;1;0.35" dur="4.0s" repeatCount="indefinite" begin="3.22s"/></circle><circle cx="1182.5" cy="139.4" r="3.6" fill="#22D3EE" opacity="0.85"><animate attributeName="opacity" values="0.35;1;0.35" dur="4.4s" repeatCount="indefinite" begin="3.45s"/></circle></g><path id="travelPath" d="M 1000,430 C 1120,300 1180,200 1080,120 C 1000,60 1180,40 1320,90" fill="none" stroke="#7C3AED" stroke-opacity="0.18" stroke-width="1.4"/><circle r="4.2" fill="#22D3EE" filter="url(#softGlow)"><animateMotion dur="6s" repeatCount="indefinite" path="M 1000,430 C 1120,300 1180,200 1080,120 C 1000,60 1180,40 1320,90"/></circle><rect x="0" y="0" width="6" height="420" fill="url(#brandGrad)"/><g transform="translate(92,86) scale(0.917)" fill="none" stroke="#22D3EE" stroke-width="2.07" stroke-linecap="round" stroke-linejoin="round"><rect x="6" y="6" width="12" height="12" rx="2"/><rect x="9.5" y="9.5" width="5" height="5" rx="1"/><path d="M9 2v3M15 2v3M9 19v3M15 19v3M2 9h3M2 15h3M19 9h3M19 15h3"/></g><text x="124" y="104" font-family="'SFMono-Regular','Cascadia Code','Consolas','Liberation Mono',Menlo,monospace" font-size="17" letter-spacing="3.5" fill="#22D3EE" font-weight="600">FULL-STACK AI ENGINEER · SECURITY RESEARCHER</text><text x="90" y="222" font-family="-apple-system,BlinkMacSystemFont,'Segoe UI','Inter','Helvetica Neue',Helvetica,Arial,sans-serif" font-size="92" font-weight="800" fill="#F4F2FF" stroke="#05060B" stroke-width="2.5" paint-order="stroke fill" letter-spacing="-1">Ahmad Mustafa</text><g font-family="'SFMono-Regular','Cascadia Code','Consolas','Liberation Mono',Menlo,monospace" font-size="26" font-weight="500"><g opacity="0"><animate attributeName="opacity" values="0;1;1;0;0" keyTimes="0.0000;0.0200;0.2300;0.2500;1.0000" dur="14.40s" begin="0s" repeatCount="indefinite"/><text x="92" y="280" fill="#B9B4D6"><tspan fill="#A78BFA">> </tspan>building provenance-based security layers for AI agents</text><rect x="940.2" y="262" width="3" height="21" fill="#22D3EE"><animate attributeName="opacity" values="1;1;0;0" dur="1s" repeatCount="indefinite"/></rect></g><g opacity="0"><animate attributeName="opacity" values="0;0;1;1;0;0" keyTimes="0.0000;0.2500;0.2700;0.4800;0.5000;1.0000" dur="14.40s" begin="0s" repeatCount="indefinite"/><text x="92" y="280" fill="#B9B4D6"><tspan fill="#A78BFA">> </tspan>shipping RAG systems that never hallucinate pricing</text><rect x="880.6" y="262" width="3" height="21" fill="#22D3EE"><animate attributeName="opacity" values="1;1;0;0" dur="1s" repeatCount="indefinite"/></rect></g><g opacity="0"><animate attributeName="opacity" values="0;0;1;1;0;0" keyTimes="0.0000;0.5000;0.5200;0.7300;0.7500;1.0000" dur="14.40s" begin="0s" repeatCount="indefinite"/><text x="92" y="280" fill="#B9B4D6"><tspan fill="#A78BFA">> </tspan>researching vulnerability introduction in AI-authored code</text><rect x="984.8" y="262" width="3" height="21" fill="#22D3EE"><animate attributeName="opacity" values="1;1;0;0" dur="1s" repeatCount="indefinite"/></rect></g><g opacity="0"><animate attributeName="opacity" values="0;0;1;1;0" keyTimes="0.0000;0.7500;0.7700;0.9800;1.0000" dur="14.40s" begin="0s" repeatCount="indefinite"/><text x="92" y="280" fill="#B9B4D6"><tspan fill="#A78BFA">> </tspan>orchestrating multi-agent systems over MCP</text><rect x="746.7" y="262" width="3" height="21" fill="#22D3EE"><animate attributeName="opacity" values="1;1;0;0" dur="1s" repeatCount="indefinite"/></rect></g></g><text x="90" y="336" font-family="-apple-system,BlinkMacSystemFont,'Segoe UI','Inter','Helvetica Neue',Helvetica,Arial,sans-serif" font-size="20" fill="#B9B4D6">Islamabad, Pakistan  ·  COMSATS University  ·  open source contributor  ·  published researcher</text></svg>